<?xml version="1.0" encoding="utf-8"?>
<!-- Generator: Adobe Illustrator 19.0.0, SVG Export Plug-In . SVG Version: 6.00 Build 0)  -->
<svg version="1.1" id="Слой_1" xmlns="http://www.w3.org/2000/svg" xmlns:xlink="http://www.w3.org/1999/xlink" x="0px" y="0px"
	 viewBox="0 0 1886 1749.1" style="enable-background:new 0 0 1886 1749.1;" xml:space="preserve">
<style type="text/css">
	.st0{clip-path:url(#SVGID_2_);fill:#FFFFFF;}
</style>
<g>
	<defs>
		<rect id="SVGID_1_" x="0" y="0" width="1886" height="1749.1"/>
	</defs>
	<clipPath id="SVGID_2_">
		<use xlink:href="#SVGID_1_"  style="overflow:visible;"/>
	</clipPath>
	<path class="st0" d="M1886,687.1c0,148.3-96.7,342.4-290.2,582.3c-139.3,172.8-295.4,332.7-468.1,479.8
		C704.3,635.7,513.9,494.3,370.3,322.9C241.8,169.4,116.7,145.5,90.9,145.5c-23.2,0-53.5,8.4-90.9,25.1
		C95.4,57.1,175.7-5.6,239.9,0.4c130.7,12.3,579.5,362.8,1023.2,1547.5c270.8-234.7,406.2-450.1,406.2-646.1
		c0-213.5-132.8-303.2-132.8-303.2c54.2-37.4,141.8-68.3,214.1-68.3C1763.5,530.4,1886,549,1886,687.1"/>
</g>
</svg>
