<?xml version="1.0" encoding="utf-8"?>
<!-- Generator: Adobe Illustrator 17.1.0, SVG Export Plug-In . SVG Version: 6.00 Build 0)  -->
<!DOCTYPE svg PUBLIC "-//W3C//DTD SVG 1.1//EN" "http://www.w3.org/Graphics/SVG/1.1/DTD/svg11.dtd">
<svg version="1.1" id="Layer_1" xmlns="http://www.w3.org/2000/svg" xmlns:xlink="http://www.w3.org/1999/xlink" x="0px" y="0px"
	 viewBox="0 0 77.6 84.7" enable-background="new 0 0 77.6 84.7" xml:space="preserve">
<path fill="none" stroke="#B59879" stroke-width="2.007" stroke-linecap="round" stroke-linejoin="round" d="M9.6,4.9
	c0,0-1.7,1.9-5.7,2.5c0,0-5.2,0.7-1.7,2.8c0,0,2,1.1,4.9,1.4c2.8,0.2,4.9,0.8,6.4,2c1.5,1.3,2,2.1-0.1,5c-2.8,4-15.1,11.4-9.1,22.2
	c0,0-1.5,4.4,8.2,10.6c0,0,3.4,3.3,4.8,5.3c1.4,2,3.1,2.2,5.2,2.7c2.2,0.6,7.4,3.4,10,3.2c0,0,1.5,4-0.2,8.5c0,0-0.7,2.5-0.8,4.3
	c-0.1,1.8-2.3,2.8-4.3,2.2c-2-0.7-2.4,0.2-3.3,1.2C22.9,80,21,80.3,21,80.3s6.8,0.8,6,3.4c0,0,2.6,0.2,3.8-0.6
	c1.1-0.8,3.9-0.7,4.3-2.3c0.5-1.6,2.4-1.4,0.5-3s-1-5.6,1-10.1c0,0,2.1-3.6,1-5.1c0,0,7.1,0.5,16.6-5.1c0,0,9.6-3.5,13-4.6
	c3.4-1,4.7-2.5,4.1-3.4c-0.6-0.9,3.8-2.6,5-3.2c1.3-0.6-1.1-1.3-4.2-1.7c-3.1-0.4-12.4-2.3-14.3-3.5c-1.9-1.3-2.7-1.9-1.5-2.4
	c1.3-0.5,0-1.1-2.8-3.2s-7.8-8.2-18.8-9.7c0,0-5-0.9-12.6,3.2c0,0-3,0,0.1-5.3c0,0,4.5-10.2,1.8-16.6c0,0-2.4-5.9-6.4-6
	C17.6,1.1,12,0,9.6,4.9z"/>
</svg>
