<?xml version="1.0" encoding="utf-8"?>
<!-- Generator: Adobe Illustrator 17.1.0, SVG Export Plug-In . SVG Version: 6.00 Build 0)  -->
<!DOCTYPE svg PUBLIC "-//W3C//DTD SVG 1.1//EN" "http://www.w3.org/Graphics/SVG/1.1/DTD/svg11.dtd">
<svg version="1.1" id="Layer_1" xmlns="http://www.w3.org/2000/svg" xmlns:xlink="http://www.w3.org/1999/xlink" x="0px" y="0px"
	 viewBox="0 0 56.3 72.2" enable-background="new 0 0 56.3 72.2" xml:space="preserve">
<path fill="none" stroke="#B59879" stroke-width="2.007" stroke-linecap="round" stroke-linejoin="round" stroke-miterlimit="10" d="
	M6.1,4.9c0,0-1.6,0.3-0.3,2.8c0,0-1.5,2.5-4.3,2.5c0,0-0.3,0.3,0.7,0.6l3.2-0.1c0,0,0.4-0.1,0,0.8c0,0-1.1,3,1,3c0,0,1.3,0-0.6,1.5
	c0,0-4.2,3.7-1.5,4.2c0,0-4.2,4.9-1.2,6.4c0,0-2.9,3.3-1.7,6c0,0-1.5,7.9,1.7,9.1c0,0-0.7,3.2,2.1,4.5c0,0,1.8,1.8,2.3,3.6
	c0.5,1.7,2.5,4.1,5.6,3.9s1.9,0.7,3.5,0.7c1.6,0,5.6,1.8,7,1.4c0,0,0.4,2.8,1.9,3.8c0,0-0.1,1.4-0.3,2.8c0,0-1.3,2.6-1.3,3.6
	c0,0-2.4,1.6-5.1,1.2c-2.7-0.4-4.8,0.4-5.2,1.8c0,0,1.5-2,4.7-1.3c0,0,3.7,1,0.9,2.2s-2.2,1.2-2.2,1.2s3.7-1.9,6.1-2.2
	c0,0,3.7,0.6,5.6,1.8c1.2,0.7-2.1-1.6-2.1-3.1c0,0-0.2-1.1,1-2.1c0,0,0.8-1.1,2.1-5.2c0,0,7.7-4.7,7.8-6.8c0,0,3.2-2.2,5.1-3.5
	c1.9-1.2,8.3-4.7,8-6.7c-0.3-2.1,5.2-6.5,3.7-8.1c0,0-0.6-1.6,0.3-4.2c0,0,1.4-2.3,0.2-3.2c0,0,1.7-2.7-0.2-3.1c0,0,0.4-2.3-0.9-2.7
	c0,0,1.5-2.2-0.1-2.8c0,0-1.6-1.2-1.1-2.6c0.5-1.4,0.7-4.9-1.7-2.5c0,0-5.2,5.1-13.1,10c0,0-7-1.8-11.2,0.8c0,0-4.4-2.7-6.3-10
	l-1.7-5.4c0,0-1.2-3.9-3.6-4.3c0,0-0.7-0.2-1-2.5c0,0-0.3-3.2-2.3-1.2c0,0-2.4-0.9-3.1,1.2C8.3,2.8,5.8,2.5,6.1,4.9z"/>
<path fill="none" stroke="#B59879" stroke-width="2.007" stroke-linecap="round" stroke-linejoin="round" stroke-miterlimit="10" d="
	M5.7,7.6c0,0,3.1-3.7,9.1-2.3"/>
</svg>
