<?xml version="1.0" encoding="utf-8"?>
<!-- Generator: Adobe Illustrator 17.1.0, SVG Export Plug-In . SVG Version: 6.00 Build 0)  -->
<!DOCTYPE svg PUBLIC "-//W3C//DTD SVG 1.1//EN" "http://www.w3.org/Graphics/SVG/1.1/DTD/svg11.dtd">
<svg version="1.1" id="Layer_1" xmlns="http://www.w3.org/2000/svg" xmlns:xlink="http://www.w3.org/1999/xlink" x="0px" y="0px"
	 viewBox="0 0 86.1 80.3" enable-background="new 0 0 86.1 80.3" xml:space="preserve">
<path fill="none" stroke="#B59879" stroke-width="2.007" stroke-linecap="round" stroke-linejoin="round" d="M2.3,9.3
	c0,0,4.8-3.1,6.5-4.8c1.7-1.7,9.7-6.5,13.7-0.9c0,0,2.8,4.3-3.4,13.1c0,0-4.9,8.8-3.7,12.3c1,2.9,1.8,2.9,3.3,1s5.2-5.4,8.1-6.7
	c2.8-1.3,16.5-9.7,27.9-3.2c0,0,9.2,3.2,12.1,18.1c0,0,0.7,3.7-1.1,10.4c0,0-1.4,4.4,0.7,6.5c0,0,9.5,6.8,6.7,8.4
	c0,0-2.7-0.2-5.5-1.5c-2.7-1.3-5.7-3.5-5.7-3.5s8.5,5.3,4.8,5.6c0,0-4.8,0-8.1-1.7c0,0,5.1,3,3,4.4c0,0-4.7,0.5-10.1-1.5
	c0,0-2.3,3.5-2.4,4.7c0,0,1.4,2.7-0.1,4.3c0,0,4.3,2.2,4.4,4.2c0,0-8.1-3.9-18.3,0.6c0,0,8.1-4.4,6.1-4.3c-2,0.1-3.5-2-10,2.7
	c0,0,5-5.3,12.7-4.4c0,0,3.3-4.3,1.6-6.3l-1.6-0.7c0,0-25.5-0.1-34.4-15.3c0,0-5.2-3.1-4.7-11.9c0,0-0.1-7.1,4.2-13
	c0,0,9.3-8.6,3.2-13.5c0,0-3.4-1.4-4.1-2.4c-0.7-1-1.7,1.4-1.9,2.9c-0.2,1.5-1.1,6.9-1.1,6.9s-0.1,3.7-1.2,5.4c0,0-1.8,1.7-2.6-3.8
	c0,0-0.3-3.8,1.2-5.7c0,0,1.4-2.8,1.6-4.7C4,10.4-0.5,10.8,2.3,9.3z"/>
<path fill="none" stroke="#B59879" stroke-width="2.007" stroke-linecap="round" stroke-linejoin="round" d="M57.4,21.6
	c0,0,5.3-5,9.2-14.4c0,0,2.3-6,4.8-1.4c0,0,1.9,2.3,3.4,2.7c1.4,0.5,4.8,3.2,6.1,5.2c1.3,2,2.4,4.9,2.8,7.6
	c0.5,2.7,2.8,9.6,0.2,19.2c0,0-2,5.9-4.3,9.3c0,0,2,7.9-6.3,11.8"/>
<path fill="none" stroke="#B59879" stroke-width="2.007" stroke-linecap="round" stroke-linejoin="round" d="M27.6,35.8
	c0,0-6.8-3.5-7.9,6.9c0,0-1.3,7.8,8.3,16.6c0,0,6.4,6,14.4,7.1"/>
<path fill="none" stroke="#B59879" stroke-width="2.007" stroke-linecap="round" stroke-linejoin="round" d="M52.8,48.7
	c0,0,8.2,2.2,12.9,6"/>
<path fill="none" stroke="#B59879" stroke-width="2.007" stroke-linecap="round" stroke-linejoin="round" d="M61.3,25
	c0,0,10-6,11.6-17.6"/>
<path fill="none" stroke="#B59879" stroke-width="2.007" stroke-linecap="round" stroke-linejoin="round" d="M64.4,29.3
	c0,0,12.5-5.5,14-18.3"/>
<path fill="none" stroke="#B59879" stroke-width="2.007" stroke-linecap="round" stroke-linejoin="round" d="M66,34.2
	c0,0,11.8-2.3,17.1-15.9"/>
<path fill="none" stroke="#B59879" stroke-width="2.007" stroke-linecap="round" stroke-linejoin="round" d="M84.9,28.2
	c0,0-7.2,11.4-17.7,12.9"/>
<path fill="none" stroke="#B59879" stroke-width="2.007" stroke-linecap="round" stroke-linejoin="round" d="M84,38.4
	c0,0-9.5,8.5-17.4,8.1"/>
<path fill="none" stroke="#B59879" stroke-width="2.007" stroke-linecap="round" stroke-linejoin="round" d="M65.6,50.8
	c0,0,8,3.2,14.1-1"/>
<path fill="none" stroke="#B59879" stroke-width="2.007" stroke-linecap="round" stroke-linejoin="round" d="M67.1,55.7
	c0,0,8.7,4,11.7,0.4"/>
</svg>
