<?xml version="1.0" encoding="utf-8"?>
<!-- Generator: Adobe Illustrator 17.1.0, SVG Export Plug-In . SVG Version: 6.00 Build 0)  -->
<!DOCTYPE svg PUBLIC "-//W3C//DTD SVG 1.1//EN" "http://www.w3.org/Graphics/SVG/1.1/DTD/svg11.dtd">
<svg version="1.1" id="Layer_1" xmlns="http://www.w3.org/2000/svg" xmlns:xlink="http://www.w3.org/1999/xlink" x="0px" y="0px"
	 viewBox="0 0 309.4 176.4" enable-background="new 0 0 309.4 176.4" xml:space="preserve">
<g>
	<defs>
		<rect id="SVGID_1_" width="309.4" height="176.4"/>
	</defs>
	<clipPath id="SVGID_2_">
		<use xlink:href="#SVGID_1_"  overflow="visible"/>
	</clipPath>
	<path clip-path="url(#SVGID_2_)" fill="#FFFFFF" d="M196.6,112.8c0,4.9-2,10-6,15.3c-9.9,13-23.7,19.5-41.4,19.5
		c-9.4,0-18.5-1.8-27.2-5.3c-8.7-3.5-13-6.5-13-8.9V75c0-1.3-1.6-2.7-4.8-4.3c-2.3-1.1-4.5-2.1-6.8-3.2c0.9-0.6,2.4-1.4,4.7-2.4
		c1.7-0.8,5.6-3.4,11.8-7.9c5.7-4.3,8.7-6.4,9.2-6.4c1,0,1.4,5.9,1.4,11.9c17.1-7.7,30.8-11.6,41.2-11.6c3.8,0,6.7,0.3,8.9,1
		c3.4,1.1,6.7,3.9,9.7,8.6c3.1,4.7,4.6,8.9,4.6,12.6c0,3.8-2.2,7.9-6.6,12.3c-4.4,4.5-8.4,6.7-12.1,6.7
		C187.8,95.1,196.6,102,196.6,112.8 M173.4,80.6c0-7.6-3.7-13.2-11.1-16.7c-5.5-2.6-12.6-3.9-21.3-3.9c-11.1,0-16.6,3-16.6,9v27.1
		l17.1-1.8c5.9-0.5,11.3-0.8,16.3-0.8C168.2,93.5,173.4,89.2,173.4,80.6 M182.4,126c0-8.9-5.9-16-17.6-21.3
		c-9.2-4.1-19-6.1-29.3-6.1c-7.4,0-11.1,0.9-11.1,2.6v22.2c0,3,4.7,6.3,14.1,9.8c9.4,3.5,18.3,5.3,26.8,5.3c5.5,0,9.4-0.7,11.9-2.1
		C180.7,134.7,182.4,131.2,182.4,126"/>
	<path clip-path="url(#SVGID_2_)" fill="#C20B19" d="M296.5,57.2c0,12.3-8.1,28.5-24.2,48.5c-11.6,14.4-24.6,27.7-39,39.9
		c-35.2-92.7-51.1-104.4-63-118.7c-10.7-12.8-21.1-14.8-23.3-14.8c-1.9,0-4.5,0.7-7.6,2.1c7.9-9.4,14.6-14.7,20-14.2
		c10.9,1,48.2,30.2,85.2,128.8c22.5-19.5,33.8-37.5,33.8-53.8c0-17.8-11.1-25.2-11.1-25.2c4.5-3.1,11.8-5.7,17.8-5.7
		C286.3,44.1,296.5,45.7,296.5,57.2"/>
	<path clip-path="url(#SVGID_2_)" fill="#FFFFFF" d="M7.1,166.7c-0.2-0.3-0.5-0.5-0.9-0.6c-0.4-0.1-0.7-0.2-1.1-0.2
		c-0.2,0-0.4,0-0.6,0.1c-0.2,0-0.4,0.1-0.6,0.2c-0.2,0.1-0.3,0.2-0.5,0.4c-0.1,0.2-0.2,0.4-0.2,0.6c0,0.4,0.1,0.7,0.4,0.9
		c0.3,0.2,0.6,0.4,1.1,0.5c0.4,0.1,0.9,0.3,1.4,0.4c0.5,0.1,0.9,0.3,1.4,0.6c0.4,0.3,0.8,0.6,1.1,1c0.3,0.4,0.4,1,0.4,1.7
		c0,0.7-0.1,1.3-0.4,1.8c-0.3,0.5-0.6,0.9-1,1.3c-0.4,0.3-0.9,0.6-1.5,0.8c-0.6,0.2-1.2,0.2-1.8,0.2c-0.8,0-1.6-0.1-2.2-0.4
		c-0.7-0.2-1.3-0.6-1.9-1.2l1.9-2.1c0.3,0.4,0.6,0.7,1.1,0.9c0.4,0.2,0.9,0.3,1.3,0.3c0.2,0,0.4,0,0.7-0.1c0.2-0.1,0.4-0.1,0.6-0.2
		c0.2-0.1,0.3-0.2,0.4-0.4c0.1-0.2,0.2-0.4,0.2-0.6c0-0.4-0.1-0.7-0.4-0.9c-0.3-0.2-0.6-0.4-1.1-0.6c-0.4-0.2-0.9-0.3-1.4-0.5
		c-0.5-0.2-1-0.4-1.4-0.6c-0.4-0.3-0.8-0.6-1.1-1c-0.3-0.4-0.4-1-0.4-1.7c0-0.7,0.1-1.2,0.4-1.8c0.3-0.5,0.6-0.9,1.1-1.3
		c0.4-0.3,0.9-0.6,1.5-0.8c0.6-0.2,1.2-0.3,1.8-0.3c0.7,0,1.4,0.1,2,0.3c0.7,0.2,1.2,0.5,1.8,1L7.1,166.7z"/>
	<path clip-path="url(#SVGID_2_)" fill="#FFFFFF" d="M11.5,169.8c0-0.9,0.2-1.8,0.5-2.6c0.3-0.8,0.8-1.5,1.3-2.1
		c0.6-0.6,1.2-1,2-1.4c0.8-0.3,1.7-0.5,2.6-0.5s1.8,0.2,2.6,0.5c0.8,0.3,1.5,0.8,2,1.4c0.6,0.6,1,1.3,1.3,2.1
		c0.3,0.8,0.5,1.7,0.5,2.6s-0.2,1.8-0.5,2.6c-0.3,0.8-0.8,1.5-1.3,2.1c-0.6,0.6-1.2,1-2,1.3c-0.8,0.3-1.7,0.5-2.6,0.5
		s-1.8-0.2-2.6-0.5c-0.8-0.3-1.5-0.8-2-1.3c-0.6-0.6-1-1.3-1.3-2.1C11.6,171.7,11.5,170.8,11.5,169.8 M12.6,169.8
		c0,0.8,0.1,1.5,0.4,2.2c0.2,0.7,0.6,1.2,1.1,1.7c0.5,0.5,1,0.9,1.7,1.2c0.6,0.3,1.4,0.4,2.2,0.4s1.5-0.1,2.2-0.4
		c0.6-0.3,1.2-0.7,1.7-1.2c0.5-0.5,0.8-1.1,1-1.7c0.2-0.7,0.4-1.4,0.4-2.2s-0.1-1.5-0.4-2.2c-0.2-0.7-0.6-1.2-1-1.7
		c-0.5-0.5-1-0.9-1.7-1.2c-0.6-0.3-1.4-0.4-2.2-0.4s-1.5,0.1-2.2,0.4c-0.6,0.3-1.2,0.7-1.7,1.2c-0.5,0.5-0.8,1.1-1.1,1.7
		C12.8,168.4,12.6,169.1,12.6,169.8"/>
	<path clip-path="url(#SVGID_2_)" fill="#FFFFFF" d="M38,174.1c-0.6,0.8-1.3,1.4-2.1,1.7c-0.8,0.4-1.6,0.5-2.5,0.5
		c-0.9,0-1.8-0.2-2.6-0.5c-0.8-0.3-1.5-0.8-2-1.3c-0.6-0.6-1-1.3-1.3-2.1s-0.5-1.7-0.5-2.6s0.2-1.8,0.5-2.6c0.3-0.8,0.8-1.5,1.3-2.1
		c0.6-0.6,1.2-1,2-1.4c0.8-0.3,1.7-0.5,2.6-0.5c0.8,0,1.6,0.2,2.4,0.4c0.7,0.3,1.4,0.8,1.9,1.5l-0.9,0.8c-0.4-0.6-0.9-1-1.5-1.3
		c-0.6-0.3-1.2-0.4-1.8-0.4c-0.8,0-1.5,0.1-2.2,0.4c-0.6,0.3-1.2,0.7-1.7,1.2c-0.5,0.5-0.8,1.1-1.1,1.7c-0.2,0.7-0.4,1.4-0.4,2.2
		c0,0.8,0.1,1.5,0.4,2.2c0.2,0.7,0.6,1.2,1.1,1.7c0.5,0.5,1,0.9,1.7,1.2c0.6,0.3,1.4,0.4,2.2,0.4c0.3,0,0.6,0,1-0.1
		c0.3-0.1,0.7-0.2,1-0.4c0.3-0.2,0.6-0.4,0.9-0.6c0.3-0.2,0.5-0.5,0.8-0.9L38,174.1z"/>
	<rect x="40.9" y="163.6" clip-path="url(#SVGID_2_)" fill="#FFFFFF" width="1.2" height="12.4"/>
	<path clip-path="url(#SVGID_2_)" fill="#FFFFFF" d="M46.4,163.6h7.6v1h-6.4v4.4h6v1h-6v4.8h6.7v1.1h-7.9V163.6z M50.7,160.4h1.4
		l-2.3,2.5h-0.9L50.7,160.4z"/>
	<polygon clip-path="url(#SVGID_2_)" fill="#FFFFFF" points="60.4,164.7 56.1,164.7 56.1,163.6 65.8,163.6 65.8,164.7 61.5,164.7 
		61.5,176 60.4,176 	"/>
	<path clip-path="url(#SVGID_2_)" fill="#FFFFFF" d="M68.5,163.6h7.6v1h-6.4v4.4h6v1h-6v4.8h6.7v1.1h-7.9V163.6z M72.8,160.4h1.4
		l-2.3,2.5H71L72.8,160.4z"/>
	<path clip-path="url(#SVGID_2_)" fill="#FFFFFF" d="M84.8,163.6h4.6c0.5,0,1.1,0,1.6,0.1c0.5,0.1,1,0.2,1.5,0.5
		c0.4,0.2,0.8,0.5,1.1,1c0.3,0.4,0.4,1,0.4,1.6c0,0.7-0.2,1.3-0.6,1.7c-0.4,0.5-0.9,0.8-1.5,1v0c0.4,0.1,0.8,0.2,1.1,0.3
		c0.3,0.2,0.6,0.4,0.9,0.6c0.2,0.3,0.4,0.6,0.6,0.9c0.1,0.4,0.2,0.7,0.2,1.1c0,0.7-0.1,1.2-0.4,1.6c-0.3,0.4-0.6,0.8-1.1,1.1
		c-0.4,0.3-0.9,0.5-1.5,0.6c-0.6,0.1-1.1,0.2-1.7,0.2h-5.1V163.6z M87.5,168.6h2c0.2,0,0.4,0,0.6-0.1c0.2,0,0.4-0.1,0.6-0.2
		c0.2-0.1,0.3-0.2,0.4-0.4c0.1-0.2,0.1-0.4,0.1-0.6c0-0.3-0.1-0.5-0.2-0.6s-0.3-0.3-0.4-0.4c-0.2-0.1-0.4-0.2-0.6-0.2
		c-0.2,0-0.4-0.1-0.6-0.1h-1.9V168.6z M87.5,173.7H90c0.2,0,0.4,0,0.6-0.1c0.2,0,0.4-0.1,0.6-0.2c0.2-0.1,0.3-0.3,0.4-0.5
		c0.1-0.2,0.2-0.4,0.2-0.7c0-0.3-0.1-0.5-0.2-0.7c-0.1-0.2-0.3-0.3-0.6-0.4c-0.2-0.1-0.5-0.2-0.7-0.2c-0.3,0-0.5-0.1-0.7-0.1h-2.1
		V173.7z"/>
	<path clip-path="url(#SVGID_2_)" fill="#FFFFFF" d="M97.4,163.6h3.3c0.2,0,0.4,0,0.7,0c0.3,0,0.6,0,0.9,0.1c0.3,0.1,0.7,0.2,1,0.3
		c0.3,0.1,0.6,0.3,0.9,0.6c0.3,0.2,0.5,0.6,0.7,0.9c0.2,0.4,0.3,0.8,0.3,1.4c0,0.6-0.1,1.1-0.3,1.5c-0.2,0.4-0.5,0.7-0.8,0.9
		c-0.3,0.2-0.7,0.4-1,0.5c-0.4,0.1-0.7,0.2-1.1,0.2l3.6,6h-1.3l-3.5-5.9h-2.2v5.9h-1.2V163.6z M98.6,169.1h2.4
		c0.6,0,1.1-0.1,1.5-0.2c0.4-0.2,0.7-0.3,0.9-0.6c0.2-0.2,0.4-0.5,0.4-0.7c0.1-0.3,0.1-0.5,0.1-0.7c0-0.2,0-0.4-0.1-0.7
		c-0.1-0.3-0.2-0.5-0.4-0.7c-0.2-0.2-0.5-0.4-0.9-0.6c-0.4-0.2-0.9-0.2-1.5-0.2h-2.4V169.1z"/>
	<polygon clip-path="url(#SVGID_2_)" fill="#FFFFFF" points="108.7,163.6 116.3,163.6 116.3,164.7 109.8,164.7 109.8,169.1 
		115.9,169.1 115.9,170.2 109.8,170.2 109.8,175 116.5,175 116.5,176 108.7,176 	"/>
	<polygon clip-path="url(#SVGID_2_)" fill="#FFFFFF" points="122.7,164.7 118.4,164.7 118.4,163.6 128.1,163.6 128.1,164.7 
		123.8,164.7 123.8,176 122.7,176 	"/>
	<path clip-path="url(#SVGID_2_)" fill="#FFFFFF" d="M130,169.8c0-0.9,0.2-1.8,0.5-2.6c0.3-0.8,0.8-1.5,1.3-2.1c0.6-0.6,1.2-1,2-1.4
		c0.8-0.3,1.7-0.5,2.6-0.5c0.9,0,1.8,0.2,2.6,0.5c0.8,0.3,1.5,0.8,2,1.4c0.6,0.6,1,1.3,1.3,2.1c0.3,0.8,0.5,1.7,0.5,2.6
		s-0.2,1.8-0.5,2.6c-0.3,0.8-0.8,1.5-1.3,2.1c-0.6,0.6-1.2,1-2,1.3c-0.8,0.3-1.7,0.5-2.6,0.5c-0.9,0-1.8-0.2-2.6-0.5
		c-0.8-0.3-1.5-0.8-2-1.3c-0.6-0.6-1-1.3-1.3-2.1C130.2,171.7,130,170.8,130,169.8 M131.2,169.8c0,0.8,0.1,1.5,0.4,2.2
		c0.2,0.7,0.6,1.2,1.1,1.7c0.5,0.5,1,0.9,1.7,1.2c0.6,0.3,1.4,0.4,2.2,0.4c0.8,0,1.5-0.1,2.2-0.4c0.6-0.3,1.2-0.7,1.7-1.2
		c0.5-0.5,0.8-1.1,1.1-1.7c0.2-0.7,0.4-1.4,0.4-2.2s-0.1-1.5-0.4-2.2c-0.2-0.7-0.6-1.2-1.1-1.7c-0.5-0.5-1-0.9-1.7-1.2
		c-0.6-0.3-1.4-0.4-2.2-0.4c-0.8,0-1.5,0.1-2.2,0.4c-0.6,0.3-1.2,0.7-1.7,1.2c-0.5,0.5-0.8,1.1-1.1,1.7
		C131.3,168.4,131.2,169.1,131.2,169.8"/>
	<polygon clip-path="url(#SVGID_2_)" fill="#FFFFFF" points="146.3,163.6 147.8,163.6 155.3,174.5 155.4,174.5 155.4,163.6 
		156.5,163.6 156.5,176 155,176 147.5,165.2 147.5,165.2 147.5,176 146.3,176 	"/>
	<polygon clip-path="url(#SVGID_2_)" fill="#FFFFFF" points="160.8,163.6 162.3,163.6 169.8,174.5 169.9,174.5 169.9,163.6 
		171,163.6 171,176 169.5,176 162,165.2 162,165.2 162,176 160.8,176 	"/>
	<polygon clip-path="url(#SVGID_2_)" fill="#FFFFFF" points="175.3,163.6 182.9,163.6 182.9,164.7 176.4,164.7 176.4,169.1 
		182.5,169.1 182.5,170.2 176.4,170.2 176.4,175 183.1,175 183.1,176 175.3,176 	"/>
	<path clip-path="url(#SVGID_2_)" fill="#FFFFFF" d="M191.8,163.6h3.8c1.1,0,2,0.1,2.7,0.4c0.7,0.3,1.4,0.6,1.9,1
		c0.5,0.4,0.9,0.9,1.2,1.4c0.3,0.5,0.5,1,0.6,1.4c0.1,0.5,0.2,0.9,0.3,1.2c0,0.4,0.1,0.6,0.1,0.8c0,0.2,0,0.4-0.1,0.8
		c0,0.4-0.1,0.8-0.3,1.2c-0.1,0.5-0.3,0.9-0.6,1.4c-0.3,0.5-0.7,0.9-1.2,1.4c-0.5,0.4-1.1,0.7-1.9,1c-0.7,0.3-1.7,0.4-2.7,0.4h-3.8
		V163.6z M193,175h2.4c0.8,0,1.6-0.1,2.3-0.3c0.7-0.2,1.3-0.5,1.9-0.9c0.5-0.4,0.9-1,1.2-1.6c0.3-0.6,0.5-1.4,0.5-2.3
		c0-0.9-0.2-1.7-0.5-2.3c-0.3-0.6-0.7-1.2-1.2-1.6c-0.5-0.4-1.1-0.7-1.9-0.9c-0.7-0.2-1.5-0.3-2.3-0.3H193V175z"/>
	<polygon clip-path="url(#SVGID_2_)" fill="#FFFFFF" points="205.8,163.6 213.4,163.6 213.4,164.7 207,164.7 207,169.1 213,169.1 
		213,170.2 207,170.2 207,175 213.7,175 213.7,176 205.8,176 	"/>
	<polygon clip-path="url(#SVGID_2_)" fill="#FFFFFF" points="219.8,163.6 222.9,163.6 225.9,171.8 226,171.8 229.1,163.6 232,163.6 
		226.9,176 224.7,176 	"/>
	<path clip-path="url(#SVGID_2_)" fill="#FFFFFF" d="M233.8,169.8c0-0.9,0.2-1.8,0.5-2.6c0.3-0.8,0.8-1.5,1.3-2.1
		c0.6-0.6,1.2-1,2-1.4c0.8-0.3,1.7-0.5,2.6-0.5c0.9,0,1.8,0.2,2.6,0.5c0.8,0.3,1.5,0.8,2,1.4c0.6,0.6,1,1.3,1.3,2.1
		c0.3,0.8,0.5,1.7,0.5,2.6s-0.2,1.8-0.5,2.6c-0.3,0.8-0.8,1.5-1.3,2.1c-0.6,0.6-1.2,1-2,1.3c-0.8,0.3-1.7,0.5-2.6,0.5
		c-0.9,0-1.8-0.2-2.6-0.5c-0.8-0.3-1.5-0.8-2-1.3c-0.6-0.6-1-1.3-1.3-2.1C234,171.7,233.8,170.8,233.8,169.8 M235,169.8
		c0,0.8,0.1,1.5,0.4,2.2c0.2,0.7,0.6,1.2,1.1,1.7c0.5,0.5,1,0.9,1.7,1.2c0.6,0.3,1.4,0.4,2.2,0.4c0.8,0,1.5-0.1,2.2-0.4
		c0.6-0.3,1.2-0.7,1.7-1.2c0.5-0.5,0.8-1.1,1.1-1.7c0.2-0.7,0.4-1.4,0.4-2.2s-0.1-1.5-0.4-2.2c-0.2-0.7-0.6-1.2-1.1-1.7
		c-0.5-0.5-1-0.9-1.7-1.2c-0.6-0.3-1.4-0.4-2.2-0.4c-0.8,0-1.5,0.1-2.2,0.4c-0.6,0.3-1.2,0.7-1.7,1.2c-0.5,0.5-0.8,1.1-1.1,1.7
		C235.1,168.4,235,169.1,235,169.8"/>
	<polygon clip-path="url(#SVGID_2_)" fill="#FFFFFF" points="250.1,163.6 251.2,163.6 251.2,175 257,175 257,176 250.1,176 	"/>
	<path clip-path="url(#SVGID_2_)" fill="#FFFFFF" d="M263.5,163.6h1.2l5.2,12.4h-1.3l-1.3-3.3h-6.6l-1.4,3.3h-1.2L263.5,163.6z
		 M264.1,164.9l-2.9,6.8h5.7L264.1,164.9z"/>
	<rect x="272.6" y="163.6" clip-path="url(#SVGID_2_)" fill="#FFFFFF" width="1.2" height="12.4"/>
	<polygon clip-path="url(#SVGID_2_)" fill="#FFFFFF" points="278,163.6 279.2,163.6 279.2,175 284.9,175 284.9,176 278,176 	"/>
	<polygon clip-path="url(#SVGID_2_)" fill="#FFFFFF" points="287.6,163.6 288.8,163.6 288.8,175 294.6,175 294.6,176 287.6,176 	"/>
	<polygon clip-path="url(#SVGID_2_)" fill="#FFFFFF" points="297.3,163.6 304.8,163.6 304.8,164.7 298.4,164.7 298.4,169.1 
		304.4,169.1 304.4,170.2 298.4,170.2 298.4,175 305.1,175 305.1,176 297.3,176 	"/>
	<path clip-path="url(#SVGID_2_)" fill="#FFFFFF" d="M84.3,93.4c-6.1-3.2-15.6-6.1-28.5-8.7c-8.6-1.7-14.5-3.2-17.7-4.5
		c-7.3-3.1-9.8-5.4-10.9-11.5c-0.8-4,0.5-13.8,15-14.2c9.3-0.3,20.8,5.8,31.4,14.5l17.1-10.4c-10-6.1-22.3-9.1-36.9-9.1
		c-10.8,0-20.2,1.9-28,5.6c-10.2,4.8-14.4,11-14.4,20.6c0,7.3,7.4,15.9,20.2,19.3c11.7,3.1,21.1,4.8,32.9,7.5
		c12.7,3.2,20.8,7.5,22.2,15c1.5,7.5-2.3,11.6-6.9,15.3c-4.7,3.8-23,10.1-42.2,2.9c-4-1.5-7.4-3.5-10.4-5.9c-0.8-1-1.4-2.8-1.2-4.8
		c0.2-2.3,1.7-9.9,1.7-9.9L15.7,122c-4.7,2.6-9.4,5.2-14,7.9c12.1,12.8,24.5,17.7,42.8,17.7c11.7,0,22.4-2.6,32-7.9
		c11.7-6.3,17.6-14.9,17.6-25.6C94.1,104.8,90.9,97,84.3,93.4"/>
	<path clip-path="url(#SVGID_2_)" fill="#C20B19" d="M301,52.4l8.4,6.7l-8.4,4.6C302.9,58,301,52.4,301,52.4"/>
	<path clip-path="url(#SVGID_2_)" fill="#FFFFFF" d="M255.7,99.6c0,0-5.2-16.1-5.2-16.1c-0.1-0.2-0.2-0.4-0.5-0.5c0,0,0,0,0,0
		c0,0,0,0-0.1,0c0,0-0.1,0-0.1,0c0,0,0,0,0,0c0,0,0,0,0,0c0,0,0,0-0.1,0c0,0-0.1,0-0.1,0c0,0-0.1,0-0.1,0c0,0,0,0-0.1,0
		c0,0,0,0-0.1,0c0,0,0,0,0,0c0,0-0.1,0-0.1,0c0,0,0,0,0,0c0,0,0,0-0.1,0c-0.2,0.1-0.4,0.3-0.4,0.5c0,0-5.2,16.1-5.2,16.1
		c0,0.1,0,0.1,0.1,0.1c0.8,0,5.1,0.8,6,5.4h0.1c0.4-3.7,4.3-5.4,6-5.4C255.7,99.7,255.7,99.7,255.7,99.6"/>
	<path clip-path="url(#SVGID_2_)" fill="#FFFFFF" d="M244.6,78.5c-0.1-0.1-0.2-0.1-0.3,0c-3.3,1.3-5.3,2.5-6.2,3.1
		c-0.3,0.2-0.3,0.6,0,0.8c0.9,0.6,2.9,1.8,6.2,3.1c0.1,0,0.2,0,0.3,0c0.3-0.3,1.3-1.1,2.7-3.4c0-0.1,0-0.1,0-0.2
		C247,81.4,245.7,79.4,244.6,78.5"/>
	<path clip-path="url(#SVGID_2_)" fill="#FFFFFF" d="M254.6,78.5c0.1-0.1,0.2-0.1,0.3,0c3.3,1.3,5.3,2.5,6.2,3.1
		c0.3,0.2,0.3,0.6,0,0.8c-0.9,0.6-2.9,1.8-6.2,3.1c-0.1,0-0.2,0-0.3,0c-0.3-0.3-1.3-1.1-2.7-3.4c0-0.1,0-0.1,0-0.2
		C252.2,81.4,253.5,79.4,254.6,78.5"/>
	<path clip-path="url(#SVGID_2_)" fill="#FFFFFF" d="M246.1,77.2c-0.1-0.1-0.1-0.2,0-0.3c1.3-3.3,2.5-5.3,3.1-6.2
		c0.2-0.3,0.6-0.3,0.8,0c0.6,0.9,1.8,2.9,3.1,6.2c0,0.1,0,0.2,0,0.3c-0.3,0.3-1.1,1.3-3.4,2.7c-0.1,0-0.1,0-0.2,0
		C249,79.6,247,78.3,246.1,77.2"/>
</g>
</svg>
