<?xml version="1.0" encoding="utf-8"?>
<!-- Generator: Adobe Illustrator 19.0.0, SVG Export Plug-In . SVG Version: 6.00 Build 0)  -->
<svg version="1.1" id="Слой_1" xmlns="http://www.w3.org/2000/svg" xmlns:xlink="http://www.w3.org/1999/xlink" x="0px" y="0px"
	 viewBox="0 0 73.1 117.2" style="enable-background:new 0 0 73.1 117.2;" xml:space="preserve">
<style type="text/css">
	.st0{fill:#FFFFFF;}
</style>
<g id="XMLID_113_">
	<path id="XMLID_133_" class="st0" d="M20.9,110.7c0,0-6.1-18.9-6.1-19c-0.1-0.3-0.3-0.5-0.5-0.6c0,0,0,0,0,0c0,0-0.1,0-0.1,0
		c0,0-0.1,0-0.1,0c0,0,0,0-0.1,0c0,0,0,0-0.1,0c0,0-0.1,0-0.1,0c0,0-0.1,0-0.1,0c0,0-0.1,0-0.1,0c0,0-0.1,0-0.1,0c0,0,0,0-0.1,0
		c0,0,0,0,0,0c-0.1,0-0.1,0-0.2,0.1c0,0,0,0-0.1,0c0,0,0,0-0.1,0c-0.2,0.1-0.4,0.4-0.5,0.6c0,0-6.1,19-6.1,19c0,0.1,0,0.2,0.1,0.2
		c1,0,6,0.9,7.1,6.3h0.1c0.5-4.3,5-6.3,7.1-6.3C20.9,110.8,20.9,110.8,20.9,110.7"/>
	<path id="XMLID_132_" class="st0" d="M7.8,85.9c-0.1-0.1-0.2-0.1-0.3,0c-3.9,1.5-6.2,3-7.3,3.7c-0.3,0.2-0.3,0.7,0,0.9
		c1,0.7,3.4,2.2,7.3,3.7c0.1,0,0.2,0,0.3,0c0.4-0.3,1.6-1.3,3.2-4c0-0.1,0-0.2,0-0.2C10.7,89.3,9.1,86.9,7.8,85.9"/>
	<path id="XMLID_131_" class="st0" d="M19.5,85.9c0.1-0.1,0.2-0.1,0.3,0c3.9,1.5,6.2,3,7.3,3.7c0.3,0.2,0.3,0.7,0,0.9
		c-1,0.7-3.4,2.2-7.3,3.7c-0.1,0-0.2,0-0.3,0c-0.4-0.3-1.6-1.3-3.2-4c0-0.1,0-0.2,0-0.2C16.7,89.3,18.2,86.9,19.5,85.9"/>
	<path id="XMLID_130_" class="st0" d="M9.6,84.4c-0.1-0.1-0.1-0.2,0-0.3c1.5-3.9,3-6.2,3.7-7.3c0.2-0.3,0.7-0.3,0.9,0
		c0.7,1,2.2,3.4,3.7,7.3c0,0.1,0,0.2,0,0.3c-0.3,0.4-1.3,1.6-4,3.2c-0.1,0-0.2,0-0.2,0C13,87.2,10.6,85.7,9.6,84.4"/>
	<path id="XMLID_129_" class="st0" d="M66.6,34.2c0,0-6.1-18.9-6.1-19c-0.1-0.3-0.3-0.5-0.5-0.6c0,0,0,0,0,0c0,0-0.1,0-0.1,0
		c0,0-0.1,0-0.1,0c0,0,0,0-0.1,0c0,0,0,0-0.1,0c0,0-0.1,0-0.1,0c0,0-0.1,0-0.1,0c0,0-0.1,0-0.1,0c0,0-0.1,0-0.1,0c0,0,0,0-0.1,0
		c0,0,0,0,0,0c-0.1,0-0.1,0-0.2,0.1c0,0,0,0-0.1,0c0,0,0,0-0.1,0c-0.2,0.1-0.4,0.4-0.5,0.6c0,0-6.1,19-6.1,19c0,0.1,0,0.2,0.1,0.2
		c1,0,6,0.9,7.1,6.3h0.1c0.5-4.3,5-6.3,7.1-6.3C66.6,34.3,66.6,34.2,66.6,34.2"/>
	<path id="XMLID_128_" class="st0" d="M53.6,9.3c-0.1-0.1-0.2-0.1-0.3,0c-3.9,1.5-6.2,3-7.3,3.7c-0.3,0.2-0.3,0.7,0,0.9
		c1,0.7,3.4,2.2,7.3,3.7c0.1,0,0.2,0,0.3,0c0.4-0.3,1.6-1.3,3.2-4c0-0.1,0-0.2,0-0.2C56.4,12.8,54.9,10.4,53.6,9.3"/>
	<path id="XMLID_127_" class="st0" d="M65.2,9.3c0.1-0.1,0.2-0.1,0.3,0c3.9,1.5,6.2,3,7.3,3.7c0.3,0.2,0.3,0.7,0,0.9
		c-1,0.7-3.4,2.2-7.3,3.7c-0.1,0-0.2,0-0.3,0c-0.4-0.3-1.6-1.3-3.2-4c0-0.1,0-0.2,0-0.2C62.4,12.8,63.9,10.4,65.2,9.3"/>
	<path id="XMLID_126_" class="st0" d="M55.3,7.8c-0.1-0.1-0.1-0.2,0-0.3c1.5-3.9,3-6.2,3.7-7.3c0.2-0.3,0.7-0.3,0.9,0
		c0.7,1,2.2,3.4,3.7,7.3c0,0.1,0,0.2,0,0.3c-0.3,0.4-1.3,1.6-4,3.2c-0.1,0-0.2,0-0.2,0C58.7,10.7,56.3,9.1,55.3,7.8"/>
</g>
</svg>
