<?xml version="1.0" encoding="utf-8"?>
<!-- Generator: Adobe Illustrator 17.1.0, SVG Export Plug-In . SVG Version: 6.00 Build 0)  -->
<!DOCTYPE svg PUBLIC "-//W3C//DTD SVG 1.1//EN" "http://www.w3.org/Graphics/SVG/1.1/DTD/svg11.dtd">
<svg version="1.1" id="Layer_1" xmlns="http://www.w3.org/2000/svg" xmlns:xlink="http://www.w3.org/1999/xlink" x="0px" y="0px"
	 viewBox="0 0 72.1 85.8" enable-background="new 0 0 72.1 85.8" xml:space="preserve">
<path fill="none" stroke="#B59879" stroke-width="2.007" stroke-linecap="round" stroke-linejoin="round" stroke-miterlimit="10" d="
	M20.6,84.8c-0.1-1.6,0.9-2.7,2.7-2.8c1,0,2.1,0.1,3.1,0.1c1.7,0,2.3-0.5,2.7-2.1c0.5-2.1,0.9-4.3,1.4-6.4c0.1-0.4,0.1-0.7-0.4-1
	c-0.5-0.3-1.1-0.7-1.5-1.2c-1.2-1.5-2.4-3.1-3.5-4.6c-1.1-1.5-32.4-4.5-22-36.8c0.3-1.2,0.7-2.3,1.1-3.4c-1.8-0.7-2.5-1.8-2.5-3.4
	c0-1.6,0.7-2.8,1.7-4c0.6-0.7,1.1-1.4,1.7-2.1C5,16.8,5,16.7,4.9,16.7c-1.2,0.2-2.4,0.5-3.6,0.7c-0.2-1.7,0.1-2.3,1.5-3.1
	c0.2-0.1,0.5-0.3,0.8-0.3c1.7-0.5,1.9-1.8,1.1-3.1c-0.3-0.4-0.5-0.9-0.6-1.3C3.5,7.1,3.9,5,5.9,3.5c0.8-0.6,1.7-1.2,2.6-1.8
	c0.1,0.6,0.1,1,0.2,1.6c2.3-2.4,4.9-2.5,7.8-2c-0.3,0.4-0.6,0.7-0.9,1c1.4-0.4,2.8-0.8,4.3-0.4c1.5,0.4,2.5,1.4,3.6,2.6
	c-0.3,0.1-0.6,0.2-0.9,0.3c-0.7,0.3-1.5,0.5-2.1,0.9c-0.7,0.4-0.6,0.9,0,1.4C21,7.6,21.5,8,22.1,8.5c0.8,0.8,1.3,1.7,1,2.8
	c-1.2-0.3-2.3-0.6-3.5-0.8c-0.1,0.1-0.2,0.2-0.2,0.3c0.3,0.5,0.5,1,0.9,1.4c1.7,1.7,3.1,3.7,3.9,6c0.9,2.7,1.6,5.4,2.4,8
	c0.7,2.3,1.4,4.6,3.1,6.5c0.3,0.4,0.7,0.7,1.1,0.9c1.4,0.7,2.8,1.3,4.2,1.9c0.4,0.2,0.6,0.2,0.9-0.1c1.1-1,2.4-1.7,3.9-2.1
	c0.4-0.1,0.6-0.3,0.8-0.7c1.1-3.4,2.5-6.6,4.3-9.7c2.8-4.8,6.9-8,12-9.9c3.2-1.2,6.4-1.3,9.6,0.1c1,0.4,1.2,1.1,0.8,2.1
	c-0.1,0.1-0.1,0.2-0.1,0.3c1.2,0.3,2.5,0.4,2.7,1.8c0.2,1.4-1,1.7-1.9,2.2c0.7,0.3,1.5,0.4,2.1,0.8c1.2,0.6,1.3,1.8,0.3,2.7
	c-0.3,0.3-0.8,0.6-1.2,0.8c-0.5,0.3-1,0.5-1.6,0.7c1.4,1.2,1.2,2.5-0.3,3.4c-0.4,0.2-0.9,0.4-1.3,0.7c0.5,1.8-1,2.3-2.1,3.1
	c0.8,0.2,1.5,0.4,2.1,0.7c0.7,0.4,1.5,0.9,2,1.5c0.8,1,0.3,2-0.9,2.3c-0.6,0.2-1.3,0.3-2,0.4c0.3,0.2,0.6,0.3,0.8,0.6
	c0.7,0.7,1.4,1.4,1.9,2.2c0.5,1,0.1,1.8-1,2.1c-0.7,0.2-1.4,0.4-2.1,0.6c0.2,0.2,0.5,0.4,0.6,0.6c0.6,0.6,1,1.4,0.7,2.3
	c-0.3,0.8-1,1.1-1.7,1.2c-0.6,0.1-1.2,0.2-2,0.3c0.3,0.6,0.6,1,0.9,1.5c0.7,1.4,0.1,2.5-1.4,2.8c-0.5,0.1-1,0.1-1.4,0.2
	c1,1.7,0.9,1.8-0.5,2.6c0.1,0.3,0.1,0.6,0.2,0.9c0.4,1.7-0.2,2.5-1.9,2.5c-1.3,0-2.5,0-3.8,0c0.1,0.2,0.4,0.5,0.5,0.8
	c0.3,0.8,0.7,1.6,0.9,2.4c0.2,1-0.5,1.7-1.5,1.6c-0.8-0.1-1.6-0.4-2.5-0.6c-0.8,0.9-1.5,1.1-2.9,0.7c-0.3-0.1-0.6-0.2-0.8-0.1
	c-1.2,0.9-2.5,0.6-3.8,0.2c-0.5-0.2-0.9-0.1-1.1,0.3c-0.8,1.2-1.6,2.4-2.4,3.6c-1.2,1.8-2.3,3.9-3.8,5.5c-1.3,1.3-2.1,2.6-2.4,4.3
	c0,0.3-0.2,0.5-0.2,0.8c-0.4,1.7-0.9,3.5-1.3,5.3c0.3,0,0.5,0,0.6,0c2.1-0.2,3.3,1,2.6,3L20.6,84.8z"/>
</svg>
