<?xml version="1.0" encoding="utf-8"?>
<!-- Generator: Adobe Illustrator 17.1.0, SVG Export Plug-In . SVG Version: 6.00 Build 0)  -->
<!DOCTYPE svg PUBLIC "-//W3C//DTD SVG 1.1//EN" "http://www.w3.org/Graphics/SVG/1.1/DTD/svg11.dtd">
<svg version="1.1" id="Layer_1" xmlns="http://www.w3.org/2000/svg" xmlns:xlink="http://www.w3.org/1999/xlink" x="0px" y="0px"
	 viewBox="0 0 76.4 98.1" enable-background="new 0 0 76.4 98.1" xml:space="preserve">
<path fill="none" stroke="#B59879" stroke-width="2.007" stroke-linecap="round" stroke-linejoin="round" stroke-miterlimit="10" d="
	M8,6.3c0,0-2.2,0.4-0.5,3.8c0,0-2,3.4-5.9,3.4c0,0-0.5,0.4,0.9,0.9l4.4-0.1c0,0,0.6-0.2,0,1.1c0,0-1.5,4.1,1.4,4.1c0,0,1.8,0-0.8,2
	c0,0-5.7,5-2.1,5.8c0,0-5.8,6.7-1.6,8.8c0,0-4,4.6-2.4,8.2c0,0-2,10.8,2.4,12.4c0,0-0.9,4.3,2.8,6.1c0,0,2.5,2.5,3.2,4.9
	c0.7,2.4,3.4,5.6,7.6,5.3c4.2-0.2,2.6,1,4.8,1c2.2,0,7.7,2.4,9.6,1.9c0,0,0.9,3.8,3,5.2c0,0,0.9,2.5-0.2,4.3c0,0-2.3,3.2-2.3,4.6
	c0,0-3.3,2.2-7.1,1.6c-3.8-0.6-6.6,0.6-7.2,2.5c0,0,2.1-2.7,6.4-1.8c0,0,5,1.3,1.3,3.1s-3.1,1.6-3.1,1.6s5-2.6,8.3-3
	c0,0,5,0.8,7.6,2.5c1.6,1-2.8-2.2-2.8-4.2c0,0-0.3-1.5,1.4-2.8c0,0-0.7-4.1,2.8-7.2c0,0,10.6-6.5,10.7-9.3c0,0,4.3-3.1,6.9-4.8
	c2.6-1.7,11.4-6.4,10.9-9.2s7.2-8.9,5.1-11c0,0-0.9-2.2,0.5-5.8c0,0,1.9-3.2,0.3-4.4c0,0,2.4-3.6-0.2-4.2c0,0,0.6-3.2-1.3-3.8
	c0,0,2-3.1-0.1-3.8c0,0-2.2-1.7-1.5-3.6c0.7-1.9,1-6.7-2.4-3.4c0,0-7.2,7-18,13.8c0,0-9.6-2.5-15.4,1.1c0,0-6-3.7-8.6-13.8l-2.3-7.4
	c0,0-1.7-5.3-4.9-5.9c0,0-1-0.3-1.4-3.4c0,0-0.5-4.3-3.2-1.6c0,0-3.3-1.3-4.2,1.6C11,3.5,7.6,3.1,8,6.3z"/>
<path fill="none" stroke="#B59879" stroke-width="2.007" stroke-linecap="round" stroke-linejoin="round" stroke-miterlimit="10" d="
	M7.4,10.1c0,0,7.1-4.6,12.5-3.2"/>
</svg>
