<?xml version="1.0" standalone="no"?>
<!DOCTYPE svg PUBLIC "-//W3C//DTD SVG 20010904//EN"
 "http://www.w3.org/TR/2001/REC-SVG-20010904/DTD/svg10.dtd">
<svg version="1.0" xmlns="http://www.w3.org/2000/svg"
 width="628.000000pt" height="628.000000pt" viewBox="0 0 628.000000 628.000000"
 preserveAspectRatio="xMidYMid meet">
<metadata>
Created by potrace 1.11, written by Peter Selinger 2001-2013
</metadata>
<g transform="translate(0.000000,628.000000) scale(0.100000,-0.100000)"
fill="#000000" stroke="none">
<path d="M672 6035 c-52 -17 -202 -96 -202 -107 0 -4 -6 -8 -14 -8 -8 0 -16
-3 -18 -8 -1 -4 -23 -23 -48 -42 -101 -78 -380 -372 -360 -378 6 -2 16 1 23 6
7 6 52 22 102 38 113 35 191 36 291 3 17 -5 41 -11 53 -14 64 -12 361 -179
423 -238 7 -7 29 -25 48 -41 79 -64 187 -174 305 -311 33 -39 64 -75 70 -81 5
-6 33 -37 60 -68 28 -32 59 -68 70 -80 11 -12 40 -46 65 -76 25 -29 52 -61 60
-70 9 -8 29 -34 45 -55 17 -22 32 -42 35 -45 4 -3 19 -23 35 -45 17 -22 32
-42 35 -45 3 -3 21 -27 40 -53 19 -27 44 -60 56 -75 25 -32 165 -242 219 -327
21 -33 48 -76 60 -95 37 -57 180 -307 272 -475 76 -140 333 -658 333 -672 0
-7 5 -13 10 -13 6 0 10 -6 10 -13 0 -7 23 -59 50 -115 28 -56 50 -105 50 -107
0 -2 13 -32 29 -67 27 -59 44 -95 105 -231 69 -153 75 -168 136 -312 23 -55
48 -113 55 -130 7 -16 25 -59 40 -95 28 -67 43 -102 65 -155 7 -16 21 -50 30
-75 19 -49 166 -410 183 -450 6 -14 11 -27 12 -30 3 -13 47 -127 55 -145 5
-11 25 -60 44 -110 53 -142 106 -278 116 -300 5 -11 14 -37 20 -58 10 -33 14
-36 28 -25 23 19 73 60 92 78 9 8 50 44 91 79 41 36 84 74 95 85 12 12 68 64
125 116 189 174 596 587 729 740 12 14 38 43 58 66 20 22 62 69 92 104 30 35
62 71 70 80 8 8 31 36 50 60 19 25 43 54 53 65 21 22 244 305 292 370 16 22
33 42 37 43 4 2 8 8 8 13 0 6 4 15 10 22 41 50 69 90 157 222 168 251 323 531
393 705 12 30 28 69 35 85 8 17 26 68 40 115 15 47 29 92 32 100 3 8 7 22 8
30 1 8 5 29 9 45 12 53 17 79 24 125 8 50 8 274 0 305 -25 104 -62 173 -127
241 -44 44 -150 114 -175 114 -6 0 -17 5 -24 12 -7 7 -12 9 -12 5 0 -3 -17 0
-37 7 -86 29 -287 1 -476 -68 -122 -45 -194 -80 -269 -129 l-28 -18 32 -27
c62 -52 147 -146 172 -191 5 -9 12 -18 16 -21 4 -3 25 -37 48 -77 51 -90 105
-226 126 -318 10 -38 19 -79 22 -90 26 -111 25 -442 -1 -555 -3 -14 -8 -36
-10 -50 -5 -35 -44 -171 -54 -195 -5 -11 -17 -42 -27 -70 -20 -58 -118 -264
-165 -345 -86 -151 -298 -447 -383 -536 -6 -6 -31 -35 -56 -65 -58 -69 -430
-442 -540 -541 l-85 -77 -12 27 c-12 29 -33 82 -118 302 -50 129 -139 352
-168 420 -6 14 -11 27 -12 30 -1 3 -6 16 -12 30 -6 14 -43 102 -83 195 -62
146 -176 403 -275 620 -46 101 -372 754 -426 855 -104 193 -122 225 -129 235
-4 6 -25 42 -46 80 -21 39 -64 114 -96 168 -32 53 -71 118 -86 145 -65 114
-350 549 -440 672 -91 124 -226 305 -232 310 -3 3 -24 27 -45 55 -22 27 -44
55 -50 61 -5 6 -23 27 -40 48 -33 42 -37 47 -150 172 -404 447 -798 727 -1018
723 -34 -1 -81 -7 -105 -14z"/>
</g>
</svg>
